# xmcd CD database file
#
# Track frame offsets:
#	150
#	28934
#	57999
#	88223
#	111055
#	146032
#	181694
#
# Disc length: 2932 seconds
#
# Revision: 1
# Processed by: cddbd v1.5.2PL0 Copyright (c) Steve Scherf et al.
# Submitted via: CDex 1.51
#
DISCID=5e0b7207
DTITLE=Tal Wilkenfeld - Transformation
DYEAR=2007
DGENRE=Jazz
TTITLE0=BC
TTITLE1=Cosmic Joke
TTITLE2=Tuth To Be Told
TTITLE3=Serendipity
TTITLE4=The River Of Life
TTITLE5=Oatmeal Bandage
TTITLE6=Table For One
EXTD=YEAR: 2007
EXTT0=
EXTT1=
EXTT2=
EXTT3=
EXTT4=
EXTT5=
EXTT6=
PLAYORDER=
